# AST/ASF file generated using VICON BodyLanguage
# -----------------------------------------------
:version 1.10
:name VICON
:units
  mass 1.0
  length 0.45
  angle deg
:documentation
   .ast/.asf automatically generated from VICON data using
   VICON BodyBuilder and BodyLanguage model FoxedUp or BRILLIANT.MOD
:root
   order TX TY TZ RX RY RZ
   axis XYZ
   position 0 0 0  
   orientation 0 0 0 
:bonedata
  begin
     id 1 
     name lhipjoint
     direction 0.440178 -0.822639 0.359871 
     length 2.53113 
     axis 0 0 0  XYZ
  end
  begin
     id 2 
     name lfemur
     direction 0.34202 -0.939693 0  
     length 7.88132  
     axis 0 0 20  XYZ
    dof rx ry rz
    limits (-160.0 20.0)
           (-70.0 70.0)
           (-60.0 70.0)
  end
  begin
     id 3 
     name ltibia
     direction 0.34202 -0.939693 0   
     length 8.43783   
     axis 0 0 20   XYZ
    dof rx
    limits (-10.0 170.0)
  end
  begin
     id 4 
     name lfoot
     direction 0.0886351 -0.243523 0.965837   
     length 2.63414   
     axis -90 7.62852e-016 20   XYZ
    dof rx rz
    limits (-45.0 90.0)
           (-70.0 20.0)
  end
  begin
     id 5 
     name ltoes
     direction 1.53703e-011 -4.21717e-011 1   
     length 1.31427   
     axis -90 7.62852e-016 20   XYZ
    dof rx
    limits (-90.0 20.0)
  end
  begin
     id 6 
     name rhipjoint
     direction -0.399779 -0.839773 0.367367   
     length 2.47948  
     axis 0 0 0  XYZ 
  end
  begin
     id 7 
     name rfemur
     direction -0.34202 -0.939693 0   
     length 7.74806   
     axis 0 0 -20   XYZ
    dof rx ry rz
    limits (-160.0 20.0)
           (-70.0 70.0)
           (-70.0 60.0)
  end
  begin
     id 8 
     name rtibia
     direction -0.34202 -0.939693 0   
     length 8.74432   
     axis 0 0 -20   XYZ
    dof rx
    limits (-10.0 170.0)
 end
 begin
     id 9 
     name rfoot
     direction -0.108514 -0.298139 0.948334   
     length 2.66102  
     axis -90 -7.62852e-016 -20   XYZ
    dof rx rz
    limits (-45.0 90.0)
           (-20.0 70.0)
  end
  begin
     id 10 
     name rtoes
     direction -1.53392e-011 -4.22077e-011 1   
     length 1.31983   
     axis -90 -7.62852e-016 -20   XYZ
    dof rx
    limits (-90.0 20.0)
  end
  begin
     id 11 
     name lowerback
     direction 0.0113257 0.999866 0.0118602   
     length 2.58694   
     axis 0 0 0   XYZ
    dof rx ry rz
    limits (-20.0 45.0)
           (-30.0 30.0)
           (-30.0 30.0)
  end
  begin
     id 12 
     name upperback
     direction -0.0164747 0.995193 -0.0965375   
     length 2.52368   
     axis 0 0 0   XYZ
    dof rx ry rz
    limits (-20.0 45.0)
           (-30.0 30.0)
           (-30.0 30.0)
  end
  begin
     id 13 
     name thorax
     direction -0.0194301 0.99433 -0.104552   
     length 2.56099   
     axis 0 0 0   XYZ
    dof rx ry rz
    limits (-20.0 45.0)
           (-30.0 30.0)
           (-30.0 30.0)
  end
  begin
     id 14 
     name lowerneck
     direction 0.0148543 0.995587 -0.092657   
     length 1.71582   
     axis 0 0 0   XYZ
    dof rx ry rz
    limits (-20.0 45.0)
           (-30.0 30.0)
           (-30.0 30.0)
  end
  begin
     id 15 
     name upperneck
     direction -0.0135467 0.993656 -0.111639   
     length 1.68937   
     axis 0 0 0   XYZ
    dof rx ry rz
    limits (-20.0 45.0)
           (-30.0 30.0)
           (-30.0 30.0)
  end
  begin
     id 16
     name head
     direction -0.00615349 0.999547 -0.029448  
     length 1.7462  
     axis 0 0 0   XYZ
    dof rx ry rz
    limits (-20.0 45.0)
           (-30.0 30.0)
           (-30.0 30.0)
  end
  begin
     id 17 
     name lclavicle
     direction 0.988267 0.149885 0.0293713  
     length 4.47222  
     axis 0 0 0   XYZ
    dof ry rz
    limits (-20.0 10.0)
           (0.0 20.0)
  end
  begin
     id 18 
     name lhumerus
     direction 1 -4.48986e-011 -1.14833e-027   
     length 5.37148   
     axis 180 -30 -90   XYZ
    dof rx ry rz
    limits (-60.0 90.0)
           (-90.0 90.0)
           (-90.0 90.0)
  end
  begin
     id 19
     name lradius
     direction 0.999998 0.00170963 -0.000987055   
     length 3.94212   
     axis 180 -30 -90   XYZ
    dof rx
    limits (-10.0 170.0)
  end
  begin
     id 20
     name lwrist
     direction 0.999998 7.53149e-005 -0.00194706   
     length 1.97106   
     axis 4.65056e-015 90 90   XYZ
    dof ry
    limits (-180.0 0.0)
 end
  begin
     id 21 
     name lhand
     direction 1 -4.48973e-011 -1.31746e-026   
     length 1.17917   
     axis 8.4065e-015 90 90   XYZ
    dof rx rz
    limits (-90.0 90.0)
           (-45.0 45.0)
  end
  begin
     id 22 
     name lfingers
     direction 1 -4.49107e-011 -2.63492e-026   
     length 0.950679   
     axis 1.6813e-014 90 90   XYZ
    dof rx
    limits (0.0 90.0)
  end
  begin
     id 23
     name lthumb
     direction 0.707107 -6.35048e-011 0.707107   
     length 1.36499   
     axis -90 45 2.85299e-015   XYZ
    dof rx rz
    limits (-45.0 45.0)
           (-45.0 45.0)
  end
  begin
     id 24 
     name rclavicle
     direction -0.996699 0.0642895 -0.0495725   
     length 4.62611  
     axis 0 0 0   XYZ 
    dof ry rz
    limits (-10.0 20.0)
           (-20.0 0.0)
  end
  begin
     id 25 
     name rhumerus
     direction -1 -4.48919e-011 -2.41059e-027  
     length 5.4981   
     axis 180 30 90   XYZ
    dof rx ry rz
    limits (-90.0 60.0)
           (-90.0 90.0)
           (-90.0 90.0)
  end
  begin
     id 26 
     name rradius
     direction -0.999999 0.00118101 -0.000681858   
     length 3.48381   
     axis 180 30 90   XYZ
    dof rx
    limits (-10.0 170.0)
  end
  begin
     id 27 
     name rwrist
     direction -0.999999 0.000321823 -0.00132288   
     length 1.7419   
     axis 4.65056e-015 -90 -90   XYZ
    dof ry
    limits (-180.0 0.0)
  end
  begin
     id 28
     name rhand
     direction -1 -4.49022e-011 -1.31746e-026   
     length 1.34932   
     axis 8.4065e-015 -90 -90   XYZ
    dof rx rz
    limits (-90.0 90.0)
           (-45.0 45.0)
  end
  begin
     id 29
     name rfingers
     direction -1 -4.49178e-011 -2.63492e-026   
     length 1.08785   
     axis 1.6813e-014 -90 -90   XYZ
    dof rx
    limits (0.0 90.0)
  end
  begin
     id 30
     name rthumb
     direction -0.707107 -6.34713e-011 0.707107   
     length 1.56195   
     axis -90 -45 -2.85299e-015   XYZ
    dof rx rz
    limits (-45.0 45.0)
           (-45.0 45.0)
  end
:hierarchy
  begin
    root lhipjoint rhipjoint lowerback
    lhipjoint lfemur
    lfemur ltibia
    ltibia lfoot
    lfoot ltoes
    rhipjoint rfemur
    rfemur rtibia
    rtibia rfoot
    rfoot rtoes
    lowerback upperback
    upperback thorax
    thorax lowerneck lclavicle rclavicle
    lowerneck upperneck
    upperneck head
    lclavicle lhumerus
    lhumerus lradius
    lradius lwrist
    lwrist lhand lthumb
    lhand lfingers
    rclavicle rhumerus
    rhumerus rradius
    rradius rwrist
    rwrist rhand rthumb
    rhand rfingers
  end

#!OML:ASF X:\für Bonn\!DataBase\2005_08_10_Bjorn_Final\c3d\bjorn.ASF
:FULLY-SPECIFIED
:DEGREES
26
root 0.435241 18.9708 15.8696 -363.866 -156.705 359.943
lowerback 11.1261 2.28438 -2.84509
upperback 16.9134 -0.0407201 -0.259048
thorax 12.1831 -1.56225 1.02968
lowerneck 0.194397 -2.63898 3.21837
upperneck 15.061 -5.05222 3.3975
head 5.02281 -2.45057 0.354077
rclavicle 3.69739e-014 5.1684e-015
rhumerus -204.449 -159.594 94.8615
rradius 42.3367
rwrist 10.152
rhand -10.6811 11.1702
rfingers 7.12502
rthumb 15.3277 -18.2417
lclavicle 3.69739e-014 5.1684e-015
lhumerus -378.747 -4.88466 -278.543
lradius 30.0549
lwrist -15.4197
lhand -19.0936 -5.78599
lfingers 7.12502
lthumb 7.21481 24.071
rfemur -7.9051 3.78172 13.9373
rtibia 31.1221
rfoot -11.1738 23.7631
rtoes -0.896922
lfemur -11.6901 -9.37897 -8.72141
ltibia 23.1109
lfoot -4.72941 -4.8663
ltoes -16.0187
27
root 0.355614 18.977 15.8812 -363.706 -157.686 359.957
lowerback 11.1366 2.30329 -2.97164
upperback 16.9089 -0.053447 -0.254961
thorax 12.1713 -1.59673 1.10189
lowerneck 0.127515 -2.74363 3.19594
upperneck 15.142 -5.17252 3.14519
head 5.05853 -2.52123 0.26463
rclavicle -1.13307e-014 1.59028e-015
rhumerus -204.453 -159.219 95.0401
rradius 42.1598
rwrist 10.093
rhand -10.9968 11.1481
rfingers 7.12502
rthumb 15.0235 -18.2868
lclavicle -1.13307e-014 1.59028e-015
lhumerus -378.346 -4.72739 -278.673
lradius 29.4773
lwrist -15.6798
lhand -18.8657 -5.72303
lfingers 7.12502
lthumb 7.43476 24.1263
rfemur -8.1411 4.59149 13.7911
rtibia 31.0486
rfoot -10.9695 23.779
rtoes -0.487551
lfemur -11.7618 -8.09235 -8.88826
ltibia 23.5026
lfoot -4.89432 -5.05803
ltoes -17.8944
28
root 0.274988 18.9829 15.8935 -363.535 -158.674 359.992
lowerback 11.1067 2.33423 -3.00732
upperback 16.9176 -0.0435099 -0.284288
thorax 12.1981 -1.60704 1.08587
lowerneck 0.0839077 -2.84115 3.25709
upperneck 15.1926 -5.2927 2.94878
head 5.0779 -2.58627 0.180268
rclavicle 2.94201e-014 2.38542e-015
rhumerus -204.45 -158.764 95.1672
rradius 42.0029
rwrist 9.98776
rhand -11.3703 11.2134
rfingers 7.12502
rthumb 14.6637 -18.2481
lclavicle 2.94201e-014 2.38542e-015
lhumerus -377.922 -4.59697 -278.865
lradius 28.9693
lwrist -15.9921
lhand -18.6228 -5.57458
lfingers 7.12502
lthumb 7.66919 24.2664
rfemur -8.40775 5.3212 13.6371
rtibia 30.9786
rfoot -10.5693 23.9043
rtoes 0.694288
lfemur -11.8286 -6.87919 -9.03294
ltibia 23.8527
lfoot -5.07406 -5.19823
ltoes -19.3078
29
root 0.195096 18.989 15.9058 -363.371 -159.651 360.046
lowerback 11.0944 2.34199 -3.01553
upperback 16.8961 -0.0557603 -0.31895
thorax 12.1783 -1.62024 1.05101
lowerneck 0.292485 -2.89616 3.28495
upperneck 15.0987 -5.34456 2.82409
head 4.9949 -2.62391 0.136244
rclavicle -1.70955e-014 -3.57812e-015
rhumerus -204.509 -158.339 95.308
rradius 41.8422
rwrist 9.92637
rhand -11.7608 11.2203
rfingers 7.12502
rthumb 14.2875 -18.2682
lclavicle -1.70955e-014 -3.57812e-015
lhumerus -377.548 -4.27686 -279.086
lradius 28.4578
lwrist -16.4894
lhand -18.31 -5.42281
lfingers 7.12502
lthumb 7.97115 24.4069
rfemur -8.67911 6.04464 13.5096
rtibia 30.914
rfoot -10.2145 23.9468
rtoes 1.95122
lfemur -11.8732 -5.80463 -9.13611
ltibia 24.1605
lfoot -5.23224 -5.26222
ltoes -20.1227
30
root 0.115969 18.9957 15.9177 -363.199 -160.632 360.081
lowerback 11.0399 2.34289 -3.06451
upperback 16.908 -0.0875073 -0.346413
thorax 12.2256 -1.6537 1.04395
lowerneck 0.559701 -2.89288 3.1905
upperneck 14.8805 -5.31791 2.86096
head 4.86274 -2.62342 0.174532
rclavicle -1.11319e-014 -1.23246e-014
rhumerus -204.464 -157.991 95.4058
rradius 41.6762
rwrist 9.83375
rhand -12.1555 11.256
rfingers 7.12502
rthumb 13.9072 -18.2589
lclavicle -1.11319e-014 -1.23246e-014
lhumerus -377.085 -3.76768 -279.332
lradius 27.9242
lwrist -17.0434
lhand -17.9101 -5.33162
lfingers 7.12502
lthumb 8.35708 24.4831
rfemur -8.97297 6.74186 13.3517
rtibia 30.8684
rfoot -9.81109 23.9834
rtoes 3.49721
lfemur -11.8793 -4.97911 -9.24206
ltibia 24.4051
lfoot -5.30444 -5.1315
ltoes -19.5351
31
root 0.0360218 19.0031 15.9305 -362.993 -161.613 360.113
lowerback 10.956 2.341 -3.07097
upperback 16.9116 -0.114513 -0.386882
thorax 12.2796 -1.67648 0.999197
lowerneck 0.93102 -2.87603 3.10824
upperneck 14.527 -5.26524 2.97408
head 4.66274 -2.60857 0.240925
rclavicle -1.74931e-014 3.1408e-014
rhumerus -204.431 -157.632 95.5114
rradius 41.5032
rwrist 9.81081
rhand -12.5702 11.3182
rfingers 7.12502
rthumb 13.5075 -18.2238
lclavicle -1.74931e-014 3.1408e-014
lhumerus -376.632 -3.20828 -279.596
lradius 27.4296
lwrist -17.6358
lhand -17.5163 -5.26326
lfingers 7.12502
lthumb 8.73715 24.5359
rfemur -9.32301 7.34579 13.1796
rtibia 30.8352
rfoot -9.45047 24.0165
rtoes 4.68455
lfemur -11.8952 -4.23698 -9.35005
ltibia 24.5959
lfoot -5.37237 -4.95324
ltoes -18.4757
32
root -0.0437886 19.0116 15.9442 -362.806 -162.608 360.144
lowerback 10.8859 2.34062 -3.06926
upperback 16.9139 -0.140992 -0.425327
thorax 12.3238 -1.6985 0.952234
lowerneck 1.33325 -2.83307 3.0484
upperneck 14.1791 -5.18261 3.10203
head 4.4606 -2.57898 0.309129
rclavicle 4.41302e-014 -4.53229e-014
rhumerus -204.412 -157.389 95.6079
rradius 41.3883
rwrist 9.69067
rhand -12.9215 11.2341
rfingers 7.12502
rthumb 13.1689 -18.33
lclavicle 4.41302e-014 -4.53229e-014
lhumerus -376.226 -2.64994 -279.854
lradius 26.9825
lwrist -18.1539
lhand -17.0269 -5.17338
lfingers 7.12502
lthumb 9.20937 24.6055
rfemur -9.67337 7.91445 13.0047
rtibia 30.8249
rfoot -9.18318 24.0303
rtoes 5.54977
lfemur -11.8546 -3.58301 -9.47521
ltibia 24.733
lfoot -5.48346 -4.6724
ltoes -17.6624
33
root -0.12327 19.0233 15.9568 -362.584 -163.593 360.156
lowerback 10.7815 2.33665 -3.06563
upperback 16.9147 -0.167817 -0.467652
thorax 12.3863 -1.71909 0.89953
lowerneck 1.72845 -2.79722 3.0453
upperneck 13.815 -5.10439 3.19882
head 4.25329 -2.54984 0.356095
rclavicle 4.73108e-014 9.93923e-015
rhumerus -204.354 -157.108 95.7001
rradius 41.2068
rwrist 9.68049
rhand -13.2522 11.098
rfingers 7.12502
rthumb 12.8501 -18.4865
lclavicle 4.73108e-014 9.93923e-015
lhumerus -375.859 -2.11047 -280.1
lradius 26.6145
lwrist -18.6057
lhand -16.6536 -5.06475
lfingers 7.12502
lthumb 9.56954 24.6979
rfemur -10.0732 8.37227 12.8043
rtibia 30.8238
rfoot -8.93839 24.0391
rtoes 6.25316
lfemur -11.8444 -2.98119 -9.63858
ltibia 24.8584
lfoot -5.6264 -4.32841
ltoes -17.5478
34
root -0.201745 19.0344 15.9712 -362.388 -164.578 360.191
lowerback 10.6987 2.32599 -3.03275
upperback 16.9328 -0.212549 -0.497811
thorax 12.4587 -1.74929 0.842869
lowerneck 2.03218 -2.73933 3.02349
upperneck 13.5156 -5.00554 3.29875
head 4.08944 -2.50928 0.404676
rclavicle 2.3059e-014 2.38542e-015
rhumerus -204.253 -156.915 95.7738
rradius 41.0331
rwrist 9.71307
rhand -13.5247 10.8358
rfingers 7.12502
rthumb 12.5874 -18.765
lclavicle 2.3059e-014 2.38542e-015
lhumerus -375.499 -1.53557 -280.322
lradius 26.3079
lwrist -19.0147
lhand -16.3025 -4.91195
lfingers 7.12502
lthumb 9.90835 24.8349
rfemur -10.4846 8.70122 12.63
rtibia 30.8474
rfoot -8.77712 24.0685
rtoes 6.55828
lfemur -11.8078 -2.4152 -9.78214
ltibia 24.9522
lfoot -5.79762 -3.95987
ltoes -17.5717
35
root -0.280884 19.0476 15.9862 -362.174 -165.561 360.204
lowerback 10.6195 2.31468 -2.97644
upperback 16.9406 -0.253381 -0.538845
thorax 12.5159 -1.772 0.76196
lowerneck 2.22435 -2.69136 3.00921
upperneck 13.338 -4.93465 3.3719
head 3.99104 -2.48071 0.438408
rclavicle 0 1.66979e-014
rhumerus -204.161 -156.78 95.8315
rradius 40.8916
rwrist 9.74078
rhand -13.7334 10.5182
rfingers 7.12502
rthumb 12.3861 -19.0948
lclavicle 0 1.66979e-014
lhumerus -375.127 -0.883216 -280.526
lradius 25.9862
lwrist -19.5015
lhand -16.0019 -4.67111
lfingers 7.12502
lthumb 10.1983 25.0617
rfemur -10.9292 8.86299 12.4153
rtibia 30.8812
rfoot -8.54609 24.1793
rtoes 6.9089
lfemur -11.7865 -1.86209 -9.96478
ltibia 25.0344
lfoot -5.9639 -3.54998
ltoes -17.5784
